<svg width="48" height="48" viewBox="0 0 48 48" fill="none" xmlns="http://www.w3.org/2000/svg">
    <!-- Gear -->
    <defs>
      <linearGradient id="goldenGradient" x1="0" y1="0" x2="1" y2="1">
        <stop offset="0%" stop-color="#FFD700" /> <!-- Light gold -->
        <stop offset="100%" stop-color="#FFA500" /> <!-- Dark gold -->
      </linearGradient>
    </defs>
    
    <path d="M24 32c4.418 0 8-3.582 8-8s-3.582-8-8-8-8 3.582-8 8 3.582 8 8 8zm-10.5-8a10.5 10.5 0 1 1 21 0 10.5 10.5 0 0 1-21 0z" fill="url(#goldenGradient)"/>
    <path d="M24 28a4 4 0 1 1 0-8 4 4 0 0 1 0 8z" fill="#FFD700"/>
  
    <!-- Code Brackets -->
    <path d="M14 14v20M34 14v20" stroke="#FFA500" stroke-width="2" stroke-linecap="round" stroke-linejoin="round"/>
    
    <!-- Lines -->
    <path d="M24 6v6M24 36v6M6 24h6M36 24h6" stroke="url(#goldenGradient)" stroke-width="2" stroke-linecap="round" stroke-linejoin="round"/>
  </svg>
  